<svg xmlns="http://www.w3.org/2000/svg" width="64" height="64" viewBox="0 0 64 64">
  <defs>
    <linearGradient id="grad1" x1="0%" y1="0%" x2="100%" y2="100%">
      <stop offset="0%" style="stop-color:#4A90E2;stop-opacity:1" />
      <stop offset="100%" style="stop-color:#357ABD;stop-opacity:1" />
    </linearGradient>
  </defs>
  
  <!-- 背景圆形 -->
  <circle cx="32" cy="32" r="30" fill="url(#grad1)" stroke="#2C5F8A" stroke-width="2"/>
  
  <!-- 显示器外框 -->
  <rect x="16" y="18" width="32" height="20" rx="2" ry="2" fill="#FFFFFF" stroke="#333" stroke-width="1.5"/>
  
  <!-- 显示器屏幕 -->
  <rect x="18" y="20" width="28" height="16" fill="#1E1E1E"/>
  
  <!-- 屏幕内容（远程桌面图标） -->
  <rect x="20" y="22" width="8" height="6" fill="#4CAF50" rx="1"/>
  <rect x="30" y="22" width="8" height="6" fill="#FF9800" rx="1"/>
  <rect x="20" y="29" width="8" height="5" fill="#2196F3" rx="1"/>
  <rect x="30" y="29" width="8" height="5" fill="#E91E63" rx="1"/>
  
  <!-- 显示器底座 -->
  <rect x="28" y="38" width="8" height="4" fill="#666" rx="1"/>
  <rect x="24" y="42" width="16" height="2" fill="#666" rx="1"/>
  
  <!-- 连接线条（表示远程连接） -->
  <path d="M 8 32 Q 16 28 24 32" stroke="#FFF" stroke-width="2" fill="none" opacity="0.8"/>
  <path d="M 40 32 Q 48 28 56 32" stroke="#FFF" stroke-width="2" fill="none" opacity="0.8"/>
  
  <!-- 连接点 -->
  <circle cx="8" cy="32" r="2" fill="#FFF"/>
  <circle cx="56" cy="32" r="2" fill="#FFF"/>
</svg>