<?xml version="1.0" encoding="UTF-8"?>
<svg width="256" height="256" viewBox="0 0 256 256" fill="none" xmlns="http://www.w3.org/2000/svg">
  <defs>
    <linearGradient id="gk" x1="0" y1="0" x2="1" y2="1">
      <stop offset="0%" stop-color="#27AE60"/>
      <stop offset="100%" stop-color="#6FCF97"/>
    </linearGradient>
  </defs>
  <rect width="256" height="256" rx="32" fill="#F5F7FA"/>
  <g transform="translate(28,68)">
    <!-- Keyboard body -->
    <rect x="0" y="0" width="200" height="120" rx="14" stroke="url(#gk)" stroke-width="12" fill="none"/>
    <!-- Function row -->
    <g fill="url(#gk)">
      <rect x="12" y="16" width="20" height="12" rx="2"/>
      <rect x="40" y="16" width="20" height="12" rx="2"/>
      <rect x="68" y="16" width="20" height="12" rx="2"/>
      <rect x="96" y="16" width="20" height="12" rx="2"/>
      <rect x="124" y="16" width="20" height="12" rx="2"/>
      <rect x="152" y="16" width="20" height="12" rx="2"/>
    </g>
    <!-- Main rows -->
    <g fill="url(#gk)">
      <!-- Row 1 -->
      <rect x="12" y="40" width="16" height="16" rx="2"/>
      <rect x="34" y="40" width="16" height="16" rx="2"/>
      <rect x="56" y="40" width="16" height="16" rx="2"/>
      <rect x="78" y="40" width="16" height="16" rx="2"/>
      <rect x="100" y="40" width="16" height="16" rx="2"/>
      <rect x="122" y="40" width="16" height="16" rx="2"/>
      <rect x="144" y="40" width="28" height="16" rx="2"/>

      <!-- Row 2 -->
      <rect x="12" y="62" width="20" height="16" rx="2"/>
      <rect x="36" y="62" width="16" height="16" rx="2"/>
      <rect x="58" y="62" width="16" height="16" rx="2"/>
      <rect x="80" y="62" width="16" height="16" rx="2"/>
      <rect x="102" y="62" width="16" height="16" rx="2"/>
      <rect x="124" y="62" width="16" height="16" rx="2"/>
      <rect x="146" y="62" width="26" height="16" rx="2"/>

      <!-- Row 3 with space bar -->
      <rect x="12" y="84" width="22" height="16" rx="2"/>
      <rect x="38" y="84" width="22" height="16" rx="2"/>
      <rect x="64" y="84" width="64" height="16" rx="4"/>
      <rect x="132" y="84" width="18" height="16" rx="2"/>
      <rect x="154" y="84" width="18" height="16" rx="2"/>
    </g>
  </g>
</svg>
