<?xml version="1.0" encoding="UTF-8"?>
<svg width="256" height="256" viewBox="0 0 256 256" fill="none" xmlns="http://www.w3.org/2000/svg">
  <defs>
    <linearGradient id="ga" x1="0" y1="0" x2="1" y2="1">
      <stop offset="0%" stop-color="#9B51E0"/>
      <stop offset="100%" stop-color="#BB6BD9"/>
    </linearGradient>
  </defs>
  <rect width="256" height="256" rx="32" fill="#F5F7FA"/>
  <g transform="translate(28,40)">
    <rect x="16" y="16" width="168" height="120" rx="12" stroke="url(#ga)" stroke-width="12" fill="none"/>
    <g stroke="url(#ga)" stroke-width="12" stroke-linecap="round">
      <path d="M32 36h40"/>
      <path d="M32 60h80"/>
    </g>
    <g fill="url(#ga)">
      <path d="M180 180l24 24l16-16l-24-24z"/>
      <circle cx="164" cy="164" r="24" fill="none" stroke="url(#ga)" stroke-width="12"/>
    </g>
    <g fill="url(#ga)">
      <path d="M24 24h16v-16h12v28H24z"/>
      <path d="M184 24h-16v-16h-12v28h28z"/>
      <path d="M24 136h16v16h12v-28H24z"/>
      <path d="M184 136h-16v16h-12v-28h28z"/>
    </g>
  </g>
</svg>
